<svg width="656" height="656" viewBox="0 0 656 656" fill="none" xmlns="http://www.w3.org/2000/svg">
<path d="M20.5023 535.983C-6.83436 563.32 -6.83436 607.642 20.5023 634.978C47.839 662.315 92.1606 662.315 119.497 634.978L268.697 485.779C296.034 458.442 296.034 414.121 268.697 386.784C241.36 359.447 197.039 359.447 169.702 386.784L20.5023 535.983Z" fill="#D9D9D9"/>
<path fill-rule="evenodd" clip-rule="evenodd" d="M535.983 20.5025C563.32 -6.83415 607.641 -6.83416 634.978 20.5025C662.315 47.8392 662.315 92.1608 634.978 119.497L485.779 268.697C458.442 296.034 414.12 296.034 386.784 268.697C359.447 241.36 359.447 197.039 386.784 169.702L535.983 20.5025ZM20.5023 20.5025C47.839 -6.83415 92.1606 -6.83416 119.497 20.5025L268.343 169.349C295.68 196.685 295.68 241.007 268.343 268.343C241.007 295.68 196.685 295.68 169.348 268.343L20.5024 119.497C-6.83435 92.1608 -6.83436 47.8392 20.5023 20.5025ZM386.43 386.43C359.093 413.767 359.093 458.089 386.43 485.425L535.983 634.978C563.32 662.315 607.641 662.315 634.978 634.978C662.315 607.642 662.315 563.32 634.978 535.983L485.425 386.43C458.088 359.094 413.767 359.094 386.43 386.43Z" fill="#D9D9D9"/>
</svg>
