<svg width="869" height="869" viewBox="0 0 869 869" fill="none" xmlns="http://www.w3.org/2000/svg">
<path d="M364.5 799C364.5 837.66 395.84 869 434.5 869C473.16 869 504.5 837.66 504.5 799V588C504.5 549.34 473.16 518 434.5 518C395.84 518 364.5 549.34 364.5 588V799Z" fill="#D9D9D9"/>
<path fill-rule="evenodd" clip-rule="evenodd" d="M364.5 70C364.5 31.3401 395.84 0 434.5 0C473.16 0 504.5 31.3401 504.5 70V281C504.5 319.66 473.16 351 434.5 351C395.84 351 364.5 319.66 364.5 281V70ZM3.0598e-06 434.5C1.36992e-06 395.84 31.3401 364.5 70 364.5H280.5C319.16 364.5 350.5 395.84 350.5 434.5C350.5 473.16 319.16 504.5 280.5 504.5H70C31.3401 504.5 4.74968e-06 473.16 3.0598e-06 434.5ZM517.5 434.5C517.5 473.16 548.84 504.5 587.5 504.5H799C837.66 504.5 869 473.16 869 434.5C869 395.84 837.66 364.5 799 364.5H587.5C548.84 364.5 517.5 395.84 517.5 434.5Z" fill="#D9D9D9"/>
</svg>
