<svg width="66" height="35" viewBox="0 0 66 35" fill="none" xmlns="http://www.w3.org/2000/svg">
<path d="M27.928 34.56H20.728C20.12 34.56 19.672 34.432 19.384 34.176C19.128 33.888 19 33.44 19 32.832V1.728C19 1.12 19.128 0.688001 19.384 0.432C19.672 0.144 20.12 0 20.728 0H25.72C26.328 0 26.84 0.0959997 27.256 0.287999C27.704 0.48 28.136 0.816001 28.552 1.296L37.864 11.952V1.728C37.864 1.12 37.992 0.688001 38.248 0.432C38.536 0.144 38.984 0 39.592 0H46.792C47.4 0 47.832 0.144 48.088 0.432C48.376 0.688001 48.52 1.12 48.52 1.728V32.832C48.52 33.44 48.376 33.888 48.088 34.176C47.832 34.432 47.4 34.56 46.792 34.56H39.592C38.984 34.56 38.536 34.432 38.248 34.176C37.992 33.888 37.864 33.44 37.864 32.832V26.928L29.656 16.992V32.832C29.656 33.44 29.512 33.888 29.224 34.176C28.968 34.432 28.536 34.56 27.928 34.56Z" fill="#8080FF"/>
<path d="M8.928 34.56H1.728C1.12 34.56 0.672 34.432 0.384 34.176C0.128 33.888 0 33.44 0 32.832V1.728C0 1.12 0.128 0.688001 0.384 0.432C0.672 0.144 1.12 0 1.728 0H6.72C7.328 0 7.84 0.0959997 8.256 0.287999C8.704 0.48 9.136 0.816001 9.552 1.296L18.864 11.952V1.728C18.864 1.12 18.992 0.688001 19.248 0.432C19.536 0.144 19.984 0 20.592 0H28C28.601 0 29.028 0.144 29.281 0.432C29.5657 0.688001 29.708 1.12 29.708 1.728V32.832C29.708 33.44 29.5657 33.888 29.281 34.176C29.028 34.432 28.601 34.56 28 34.56H20.592C19.984 34.56 19.536 34.432 19.248 34.176C18.992 33.888 18.864 33.44 18.864 32.832V26.928L10.656 16.992V32.832C10.656 33.44 10.512 33.888 10.224 34.176C9.968 34.432 9.536 34.56 8.928 34.56Z" fill="#80FF9A"/>
<path d="M63.5 34.56H39.728C39.12 34.56 38.672 34.432 38.384 34.176C38.128 33.888 38 33.44 38 32.832V1.728C38 1.12 38.128 0.688001 38.384 0.432C38.672 0.144 39.12 0 39.728 0H47.168C47.6367 0 47.9697 0.144 48.167 0.432C48.389 0.688001 48.5 1.12 48.5 1.728V25.488H55.472V17.712C55.472 17.104 55.6 16.672 55.856 16.416C56.144 16.128 56.592 15.984 57.2 15.984H63.5C64.108 15.984 64.54 16.128 64.796 16.416C65.084 16.672 65.228 17.104 65.228 17.712V32.832C65.228 33.44 65.084 33.888 64.796 34.176C64.54 34.432 64.108 34.56 63.5 34.56Z" fill="#8080FF"/>
</svg>
