<svg width="143" height="61" viewBox="0 0 143 61" fill="none" xmlns="http://www.w3.org/2000/svg">
<path d="M5.90054 50.2255L6.32398 24.7379L14.3854 23.4101L23.0383 39.4693L23.3466 21.9341L27.5147 21.2861L27.0101 46.7486L18.4238 48.1629L10.3258 32.6669L10.025 49.5462L5.90054 50.2255ZM40.8239 45.2436C35.3247 46.1494 32.1489 44.0151 31.2967 38.8409C30.6915 35.1664 31.2057 31.975 32.8393 29.2669C34.5732 26.3882 37.3023 24.6421 41.0268 24.0286C43.7264 23.584 45.8666 23.8733 47.4473 24.8967C49.0279 25.9201 50.0344 27.7441 50.4667 30.3688C51.1254 34.3682 50.5714 37.7073 48.8046 40.3861C47.0836 43.0316 44.4234 44.6508 40.8239 45.2436ZM39.1124 28.7728C38.9236 29.4971 38.7886 30.3923 38.7074 31.4583C38.6472 32.4953 38.5988 33.8383 38.5623 35.4875C38.5259 37.1367 38.6702 38.9486 38.9955 40.9234C39.1025 41.5733 39.291 42.0942 39.561 42.4862C39.856 42.8741 40.2909 43.0207 40.8658 42.926C41.4407 42.8313 41.8805 42.6177 42.1852 42.2851C42.5149 41.9484 42.7637 41.4324 42.9316 40.7372C43.2421 39.505 43.4224 37.7936 43.4724 35.6031C43.5182 33.3875 43.4775 31.8152 43.3502 30.8862C43.2478 29.9531 43.1411 29.1491 43.0299 28.4742C42.9146 27.7743 42.72 27.2158 42.4459 26.7988C42.1718 26.3818 41.7473 26.2207 41.1724 26.3154C40.6225 26.4059 40.1888 26.6571 39.8715 27.0688C39.5542 27.4805 39.3012 28.0485 39.1124 28.7728ZM54.6616 38.343C54.5504 37.6681 54.5298 36.452 54.5998 34.6946L54.9196 24.2437L52.7074 24.608L52.6721 23.4585C55.5235 22.0646 58.2178 20.0289 60.7551 17.3517L62.5549 17.0552L62.3282 21.2904L65.2528 20.8087L65.1932 22.5515L62.3061 23.0271L62.0613 33.4656C61.9916 35.0689 62 36.133 62.0864 36.658C62.2841 37.8578 62.9284 38.4962 64.0194 38.5733C63.9094 39.4643 63.4457 40.2339 62.6281 40.8821C61.8106 41.5302 60.7644 41.9593 59.4896 42.1693C58.2148 42.3792 57.149 42.144 56.2924 41.4635C55.4358 40.783 54.8921 39.7428 54.6616 38.343ZM82.2224 31.1463C82.9173 31.4683 83.343 32.1042 83.4995 33.0541C83.6518 33.9789 83.5399 34.7805 83.1638 35.4586C82.7876 36.1367 82.2451 36.7396 81.5361 37.2672C80.0721 38.3556 78.4778 39.0418 76.753 39.3259C75.0283 39.6099 73.6226 39.6489 72.536 39.4428C71.4744 39.2325 70.5485 38.833 69.7583 38.2443C68.2152 37.1376 67.2441 35.372 66.8447 32.9473C66.223 29.1729 66.7476 25.967 68.4186 23.3297C70.2107 20.4927 73.019 18.7593 76.8434 18.1294C79.2181 17.7383 81.0752 17.9459 82.4147 18.7522C83.4131 19.358 84.0132 20.2733 84.2149 21.4982C84.9395 25.8976 81.5024 28.7231 73.9034 29.9747C73.9105 30.641 73.9593 31.2492 74.0499 31.7991C74.2393 32.949 74.621 33.7077 75.195 34.0753C75.7899 34.4137 76.5623 34.5048 77.5122 34.3483C78.4621 34.1919 79.4019 33.8188 80.3318 33.2292C81.2826 32.6105 81.9128 31.9161 82.2224 31.1463ZM73.9003 28.3192C75.6751 28.0268 76.9843 27.2464 77.828 25.9777C78.68 24.759 78.968 23.3123 78.6922 21.6376C78.5975 21.0626 78.4129 20.6437 78.1386 20.3808C77.8851 20.0888 77.5458 19.9778 77.1209 20.0478C76.696 20.1178 76.3104 20.2711 75.9643 20.5079C75.6391 20.7155 75.3342 21.1251 75.0499 21.7368C74.3309 23.139 73.9477 25.3331 73.9003 28.3192ZM98.037 24.2281C98.6733 22.4802 98.8577 20.7938 98.5901 19.169C98.4131 18.0941 97.9371 17.6205 97.1622 17.7482C96.5623 17.847 96.0343 18.4603 95.5782 19.5881C95.0971 20.72 94.8656 21.9648 94.8839 23.3225L94.898 35.567L87.2601 37.5953L87.8115 17.0931L93.8746 15.3242L93.8234 19.2224C94.6324 16.496 96.4117 14.9063 99.1614 14.4535C100.611 14.2147 101.785 14.4064 102.684 15.0287C103.607 15.6468 104.196 16.7308 104.452 18.2806C104.703 19.8054 104.396 21.1396 103.532 22.2833C102.693 23.4228 101.411 24.1346 99.6859 24.4187C98.936 24.5422 98.3863 24.4787 98.037 24.2281Z" fill="#F3F3F3"/>
<path d="M7.4517 53.8225C7.7997 53.3005 8.35849 52.9567 8.98132 52.8814L95.5017 42.4229C97.5004 42.1813 99.3663 43.4654 99.8546 45.4185C100.454 47.8152 98.7548 50.1754 96.2919 50.3678L9.40643 57.1557C7.61935 57.2954 6.45738 55.3139 7.4517 53.8225Z" fill="#F3F3F3"/>
<path fill-rule="evenodd" clip-rule="evenodd" d="M127.942 6.81689C128.072 6.68593 128.228 6.58203 128.399 6.51113C128.569 6.44024 128.753 6.40375 128.937 6.40375C129.122 6.40375 129.306 6.44024 129.476 6.51113C129.647 6.58203 129.802 6.68593 129.933 6.81689L141.183 18.0669C141.314 18.1975 141.418 18.3527 141.489 18.5235C141.56 18.6944 141.596 18.8775 141.596 19.0625C141.596 19.2475 141.56 19.4306 141.489 19.6015C141.418 19.7723 141.314 19.9275 141.183 20.0581L135.834 25.4075L133.502 34.7253C133.325 35.4348 132.966 36.086 132.461 36.6151C131.956 37.1442 131.323 37.5329 130.622 37.7431L101.527 46.4731L110.257 17.375C110.467 16.6754 110.856 16.0425 111.384 15.5381C111.913 15.0338 112.563 14.6753 113.272 14.4978L122.59 12.1691L127.942 6.81689ZM122.879 14.9956L113.955 17.2259C113.718 17.2851 113.501 17.4049 113.324 17.5735C113.148 17.7422 113.018 17.9539 112.948 18.1878L105.72 42.2769L129.815 35.0488C130.048 34.9783 130.258 34.8487 130.425 34.6728C130.593 34.4968 130.712 34.2804 130.771 34.0447L133.004 25.1178L122.879 14.9956Z" fill="#F3F3F3"/>
<path fill-rule="evenodd" clip-rule="evenodd" d="M105.965 42.2038L120.5 30.3125C121.056 30.3125 121.6 30.1476 122.063 29.8385C122.525 29.5295 122.886 29.0902 123.098 28.5763C123.311 28.0624 123.367 27.4969 123.258 26.9513C123.15 26.4057 122.882 25.9046 122.489 25.5113C122.095 25.1179 121.594 24.8501 121.049 24.7415C120.503 24.633 119.938 24.6887 119.424 24.9016C118.91 25.1145 118.471 25.4749 118.162 25.9375C117.852 26.4 117.688 26.9437 117.688 27.5L105.796 42.035L105.723 42.2769L105.965 42.2038Z" fill="#F3F3F3"/>
</svg>
